# xmcd
# 
# Track frame offsets:
#     150
#     12702
#     50127
#     72362
#     81675
#     102570
# 
# Disc length: 2414
# 
# Revision: 14
# Processed by: cddbd v1.5.2PL0 Copyright (c) Steve Scherf et al.
# Submitted via: fre:ac v1.0.17
# 
DISCID=5c096c06
DTITLE=The Velvet Underground - White Light - White Heat
DYEAR=1968
DGENRE=Rock
TTITLE0=White Light - White Heat
TTITLE1=The Gift
TTITLE2=Lady Godiva's Operation
TTITLE3=Here She Comes Now
TTITLE4=I Heard Her Call My Name
TTITLE5=Sister Ray
EXTD=Personnel:\nLou Reed: Vocal, Guitar, Piano\nJohn Cale: Vocal, ElectricViola, Organ, Bass guitar\nSterling Morrison: Vocal, Guitar, Bass guitar\nMaureen Tucker: Percussion\n\nProduced by Tom Wilson\n\n YEAR: 1968
EXTT0=(Words and Music: Lou Reed)
EXTT1=(Words: Lou Reed, Music: Sterling Morrison/John Cale/Maureen Tucker/Lou Reed)
EXTT2=(Words and Music: Lou Reed)
EXTT3=(Words: Lou Reed, Music: Sterling Morrison/John Cale/Lou Reed)
EXTT4=(Words and Music: Lou Reed)
EXTT5=(Words: Lou Reed, Music: Sterling Morrison/John Cale/Maureen Tucker, Lou Reed)
PLAYORDER=
